<svg width="1200" height="1500" viewBox="0 0 1200 1500" fill="none" xmlns="http://www.w3.org/2000/svg">
  <rect width="1200" height="1500" rx="56" fill="#F7F2EA"/>
  <rect x="40" y="40" width="1120" height="1420" rx="40" fill="url(#bg)"/>
  <circle cx="267" cy="262" r="196" fill="#E9D5FF" fill-opacity="0.95"/>
  <circle cx="938" cy="362" r="246" fill="#DDD6FE" fill-opacity="0.82"/>
  <circle cx="764" cy="1158" r="310" fill="#F5D0FE" fill-opacity="0.48"/>
  <rect x="168" y="176" width="864" height="1148" rx="54" fill="#130D22" fill-opacity="0.94" stroke="rgba(255,255,255,0.12)"/>
  <rect x="202" y="242" width="796" height="1020" rx="40" fill="url(#phone)"/>
  <rect x="465" y="206" width="270" height="40" rx="20" fill="#05030B" fill-opacity="0.72"/>
  <circle cx="600" cy="616" r="214" fill="url(#orbGlow)" fill-opacity="0.18"/>
  <circle cx="600" cy="616" r="166" fill="url(#orb)"/>
  <circle cx="600" cy="616" r="124" stroke="white" stroke-opacity="0.18" stroke-width="2"/>
  <circle cx="600" cy="616" r="96" stroke="white" stroke-opacity="0.12" stroke-width="2"/>
  <ellipse cx="548" cy="560" rx="62" ry="42" fill="white" fill-opacity="0.42"/>
  <text x="600" y="842" text-anchor="middle" fill="white" font-family="Space Grotesk, Arial, sans-serif" font-size="88" font-weight="700" letter-spacing="-4">AURA</text>
  <text x="600" y="906" text-anchor="middle" fill="white" fill-opacity="0.7" font-family="Space Grotesk, Arial, sans-serif" font-size="34">Tuning, not typing.</text>
  <rect x="274" y="1040" width="652" height="106" rx="53" fill="white"/>
  <text x="600" y="1106" text-anchor="middle" fill="#17112A" font-family="Space Grotesk, Arial, sans-serif" font-size="34" font-weight="700">Interactive Prototype</text>
  <text x="148" y="1362" fill="#31244D" font-family="JetBrains Mono, monospace" font-size="22" letter-spacing="7">UI PROTOTYPE / FIGMA TO REACT</text>
  <defs>
    <linearGradient id="bg" x1="128" y1="82" x2="1010" y2="1413" gradientUnits="userSpaceOnUse">
      <stop stop-color="#F8F2EA"/>
      <stop offset="1" stop-color="#EEE5F7"/>
    </linearGradient>
    <linearGradient id="phone" x1="600" y1="242" x2="600" y2="1262" gradientUnits="userSpaceOnUse">
      <stop stop-color="#171028"/>
      <stop offset="0.55" stop-color="#0D0818"/>
      <stop offset="1" stop-color="#090511"/>
    </linearGradient>
    <linearGradient id="orb" x1="470" y1="472" x2="716" y2="752" gradientUnits="userSpaceOnUse">
      <stop stop-color="#A5F3FC"/>
      <stop offset="0.54" stop-color="#C4B5FD"/>
      <stop offset="1" stop-color="#F0ABFC"/>
    </linearGradient>
    <radialGradient id="orbGlow" cx="0" cy="0" r="1" gradientUnits="userSpaceOnUse" gradientTransform="translate(600 616) rotate(90) scale(214)">
      <stop stop-color="#C4B5FD"/>
      <stop offset="1" stop-color="#C4B5FD" stop-opacity="0"/>
    </radialGradient>
  </defs>
</svg>
