<svg width="1600" height="1200" viewBox="0 0 1600 1200" fill="none" xmlns="http://www.w3.org/2000/svg">
  <rect width="1600" height="1200" rx="36" fill="#F7F2EA"/>
  <rect x="24" y="24" width="1552" height="1152" rx="28" fill="url(#bg)"/>
  <text x="88" y="118" fill="#342556" font-family="JetBrains Mono, monospace" font-size="18" letter-spacing="6">APP SCREEN SYSTEM</text>
  <g transform="translate(90 190)">
    <rect width="220" height="460" rx="28" fill="#130D22" stroke="rgba(255,255,255,0.12)"/>
    <rect x="16" y="42" width="188" height="396" rx="20" fill="url(#screen)"/>
    <circle cx="110" cy="164" r="62" fill="url(#orb)"/>
    <text x="110" y="280" text-anchor="middle" fill="white" font-family="Space Grotesk, Arial, sans-serif" font-size="28" font-weight="700">Splash</text>
  </g>
  <g transform="translate(370 190)">
    <rect width="220" height="460" rx="28" fill="#130D22" stroke="rgba(255,255,255,0.12)"/>
    <rect x="16" y="42" width="188" height="396" rx="20" fill="url(#screen)"/>
    <rect x="24" y="108" width="78" height="78" rx="22" fill="white" fill-opacity="0.1"/>
    <rect x="118" y="108" width="78" height="78" rx="22" fill="white" fill-opacity="0.1"/>
    <rect x="24" y="202" width="78" height="78" rx="22" fill="white" fill-opacity="0.1"/>
    <rect x="118" y="202" width="78" height="78" rx="22" fill="white" fill-opacity="0.1"/>
    <text x="110" y="338" text-anchor="middle" fill="white" font-family="Space Grotesk, Arial, sans-serif" font-size="28" font-weight="700">Mood</text>
  </g>
  <g transform="translate(650 190)">
    <rect width="220" height="460" rx="28" fill="#130D22" stroke="rgba(255,255,255,0.12)"/>
    <rect x="16" y="42" width="188" height="396" rx="20" fill="url(#screen)"/>
    <circle cx="110" cy="168" r="66" fill="url(#orb)"/>
    <rect x="32" y="274" width="156" height="8" rx="4" fill="white" fill-opacity="0.12"/>
    <rect x="32" y="310" width="156" height="8" rx="4" fill="white" fill-opacity="0.12"/>
    <rect x="32" y="346" width="156" height="8" rx="4" fill="white" fill-opacity="0.12"/>
    <text x="110" y="390" text-anchor="middle" fill="white" font-family="Space Grotesk, Arial, sans-serif" font-size="28" font-weight="700">Calibrate</text>
  </g>
  <g transform="translate(930 190)">
    <rect width="220" height="460" rx="28" fill="#130D22" stroke="rgba(255,255,255,0.12)"/>
    <rect x="16" y="42" width="188" height="396" rx="20" fill="url(#screen)"/>
    <circle cx="110" cy="150" r="64" fill="url(#orb)"/>
    <rect x="36" y="288" width="148" height="3" rx="1.5" fill="white" fill-opacity="0.14"/>
    <rect x="36" y="288" width="72" height="3" rx="1.5" fill="white"/>
    <circle cx="110" cy="356" r="28" fill="white"/>
    <text x="110" y="365" text-anchor="middle" fill="#17112A" font-family="Space Grotesk, Arial, sans-serif" font-size="18" font-weight="700">▶</text>
    <text x="110" y="408" text-anchor="middle" fill="white" font-family="Space Grotesk, Arial, sans-serif" font-size="28" font-weight="700">Player</text>
  </g>
  <g transform="translate(1210 190)">
    <rect width="220" height="460" rx="28" fill="#130D22" stroke="rgba(255,255,255,0.12)"/>
    <rect x="16" y="42" width="188" height="396" rx="20" fill="url(#screen)"/>
    <rect x="32" y="120" width="36" height="188" rx="18" fill="url(#bar1)"/>
    <rect x="84" y="164" width="36" height="144" rx="18" fill="url(#bar2)"/>
    <rect x="136" y="92" width="36" height="216" rx="18" fill="url(#bar1)"/>
    <text x="110" y="390" text-anchor="middle" fill="white" font-family="Space Grotesk, Arial, sans-serif" font-size="28" font-weight="700">Timeline</text>
  </g>
  <defs>
    <linearGradient id="bg" x1="86" y1="76" x2="1510" y2="1128" gradientUnits="userSpaceOnUse">
      <stop stop-color="#F8F2EA"/>
      <stop offset="1" stop-color="#EEE6F8"/>
    </linearGradient>
    <linearGradient id="screen" x1="110" y1="42" x2="110" y2="438" gradientUnits="userSpaceOnUse">
      <stop stop-color="#171028"/>
      <stop offset="1" stop-color="#090511"/>
    </linearGradient>
    <linearGradient id="orb" x1="58" y1="104" x2="156" y2="222" gradientUnits="userSpaceOnUse">
      <stop stop-color="#A5F3FC"/>
      <stop offset="0.52" stop-color="#C4B5FD"/>
      <stop offset="1" stop-color="#F0ABFC"/>
    </linearGradient>
    <linearGradient id="bar1" x1="50" y1="92" x2="50" y2="308" gradientUnits="userSpaceOnUse">
      <stop stop-color="#C4B5FD"/>
      <stop offset="1" stop-color="#F0ABFC"/>
    </linearGradient>
    <linearGradient id="bar2" x1="102" y1="164" x2="102" y2="308" gradientUnits="userSpaceOnUse">
      <stop stop-color="#A5F3FC"/>
      <stop offset="1" stop-color="#C4B5FD"/>
    </linearGradient>
  </defs>
</svg>
